# This file uses centimeters as units for non-parametric coordinates.

mtllib 2ndPrototypeWeapon.mtl
g default
v 0.207623 0.808506 0.094474
v 0.906355 0.744212 0.094474
v 0.207623 0.921853 0.094474
v 0.906355 0.921853 0.094474
v 0.207623 0.921853 -0.094474
v 0.906355 0.921853 -0.094474
v 0.207623 0.808506 -0.094474
v 0.906355 0.744212 -0.094474
v 1.072433 0.876042 -0.094474
v 1.072433 0.876042 0.094474
v 1.072433 0.995423 -0.094474
v 1.072433 0.995423 0.094474
v 0.826279 1.175324 0.108735
v 0.826279 1.175324 -0.108735
v 0.992358 1.248894 0.108735
v 0.992358 1.248894 -0.108735
v 0.885962 0.986404 0.094474
v 0.885962 0.986404 -0.094474
v 0.837333 1.140335 0.108735
v 0.837333 1.140335 -0.108735
v 0.814223 0.944704 0.053339
v 0.814223 0.944704 -0.053339
v 0.784612 1.038433 0.061390
v 0.784612 1.038433 -0.061390
v 0.761202 0.957844 0.029336
v 0.761202 0.957844 -0.029336
v 0.744916 1.009395 0.033765
v 0.744916 1.009395 -0.033765
v -0.421653 0.542740 0.324005
v 0.264556 0.542740 0.324005
v -0.421653 1.189918 0.324005
v 0.434247 1.189918 0.324005
v -0.421653 1.189918 -0.324005
v 0.434247 1.189918 -0.324005
v -0.421653 0.542740 -0.324005
v 0.264556 0.542740 -0.324005
v -0.299157 0.338440 -0.324005
v 0.040133 0.338440 -0.324005
v 0.040133 0.338440 0.324005
v -0.299157 0.338440 0.324005
v -0.421653 1.615819 0.324005
v 0.434247 1.615819 0.324005
v 0.434247 1.615819 -0.324005
v -0.421653 1.615819 -0.324005
v 2.473415 1.189918 0.324005
v 2.473415 1.189918 -0.324005
v 2.473415 1.615819 -0.324005
v 2.473415 1.615819 0.324005
v 2.711567 1.310477 0.198103
v 2.711567 1.310477 -0.198103
v 2.711567 1.495260 -0.198103
v 2.711567 1.495260 0.198103
v 2.651739 1.310477 0.198103
v 2.651739 1.310477 -0.198103
v 2.651739 1.495260 -0.198103
v 2.651739 1.495260 0.198103
v 2.663585 1.351968 0.083263
v 2.663585 1.351968 -0.083263
v 2.663585 1.453769 -0.083263
v 2.663585 1.453769 0.083263
v 2.921540 1.383727 0.023591
v 2.921540 1.383727 -0.023591
v 2.921540 1.422010 -0.023591
v 2.921540 1.422010 0.023591
v -0.706256 1.307041 0.145802
v -0.706256 1.307041 -0.145802
v -0.706256 1.498696 0.145802
v -0.706256 1.498696 -0.145802
v 1.344027 1.615819 0.324005
v 1.344027 1.615819 -0.324005
v 2.470945 1.615819 0.324005
v 2.470945 1.615819 -0.324005
v 1.458457 1.702810 0.233804
v 1.458457 1.702810 -0.233804
v 2.356515 1.702810 0.233804
v 2.356515 1.702810 -0.233804
vt 0.375000 0.000000
vt 0.625000 0.000000
vt 0.375000 0.250000
vt 0.625000 0.250000
vt 0.375000 0.500000
vt 0.625000 0.500000
vt 0.375000 0.750000
vt 0.625000 0.750000
vt 0.375000 1.000000
vt 0.625000 1.000000
vt 0.875000 0.000000
vt 0.875000 0.250000
vt 0.125000 0.000000
vt 0.125000 0.250000
vt 0.625000 0.000000
vt 0.875000 0.000000
vt 0.875000 0.250000
vt 0.625000 0.250000
vt 0.875000 0.250000
vt 0.625000 0.250000
vt 0.625000 0.250000
vt 0.875000 0.250000
vt 0.875000 0.250000
vt 0.625000 0.250000
vt 0.625000 0.250000
vt 0.875000 0.250000
vt 0.875000 0.250000
vt 0.625000 0.250000
vt 0.625000 0.250000
vt 0.875000 0.250000
vt 0.875000 0.250000
vt 0.625000 0.250000
vt 0.625000 0.250000
vt 0.875000 0.250000
vt 0.375000 0.000000
vt 0.625000 0.000000
vt 0.625000 0.250000
vt 0.375000 0.250000
vt 0.375000 0.250000
vt 0.625000 0.250000
vt 0.625000 0.500000
vt 0.375000 0.500000
vt 0.375000 0.500000
vt 0.625000 0.500000
vt 0.625000 0.750000
vt 0.375000 0.750000
vt 0.375000 0.750000
vt 0.625000 0.750000
vt 0.625000 1.000000
vt 0.375000 1.000000
vt 0.875000 0.000000
vt 0.875000 0.250000
vt 0.125000 0.000000
vt 0.125000 0.250000
vt 0.625000 1.000000
vt 0.375000 1.000000
vt 0.625000 0.250000
vt 0.625000 0.500000
vt 0.625000 0.500000
vt 0.625000 0.250000
vt 0.375000 0.500000
vt 0.375000 0.250000
vt 0.375000 0.250000
vt 0.375000 0.500000
vt 0.625000 0.500000
vt 0.625000 0.250000
vt 0.625000 0.500000
vt 0.625000 0.500000
vt 0.625000 0.250000
vt 0.625000 0.250000
vt 0.625000 0.500000
vt 0.625000 0.250000
vt 0.625000 0.500000
vt 0.625000 0.250000
vt 0.625000 0.500000
vt 0.625000 0.250000
vt 0.625000 0.500000
vt 0.625000 0.250000
vt 0.625000 0.500000
vt 0.625000 0.250000
vt 0.625000 0.500000
vt 0.625000 0.250000
vt 0.625000 0.500000
vt 0.625000 0.250000
vt 0.625000 0.250000
vt 0.625000 0.500000
vt 0.625000 0.250000
vt 0.625000 0.500000
vn -0.000000 0.000000 1.000000
vn -0.000000 0.000000 1.000000
vn 0.005494 -0.012402 0.999908
vn -0.000000 0.000000 1.000000
vn 0.000000 1.000000 0.000000
vn 0.000000 1.000000 0.000000
vn 0.000000 1.000000 0.000000
vn 0.000000 1.000000 0.000000
vn -0.000000 0.000000 -1.000000
vn 0.005494 -0.012402 -0.999908
vn -0.000000 0.000000 -1.000000
vn -0.000000 0.000000 -1.000000
vn -0.091628 -0.995793 0.000000
vn 0.077856 -0.996965 0.000000
vn 0.077856 -0.996965 0.000000
vn -0.091628 -0.995793 0.000000
vn 1.000000 -0.000000 0.000000
vn 1.000000 -0.000000 0.000000
vn 0.976247 0.216659 0.000000
vn 0.976247 0.216659 0.000000
vn -1.000000 0.000000 0.000000
vn -1.000000 0.000000 0.000000
vn -1.000000 0.000000 0.000000
vn -1.000000 0.000000 0.000000
vn 0.621719 -0.783240 0.000000
vn 0.621719 -0.783240 0.000000
vn 0.016150 -0.036458 -0.999205
vn -0.000000 0.000000 -1.000000
vn -0.405022 0.914307 0.000000
vn -0.405022 0.914307 0.000000
vn -0.405022 0.914307 0.000000
vn -0.405022 0.914307 0.000000
vn -0.000000 0.000000 1.000000
vn 0.016150 -0.036458 0.999205
vn -0.953548 -0.301241 0.000000
vn -0.953548 -0.301241 0.000000
vn -0.953548 -0.301241 0.000000
vn -0.953548 -0.301241 0.000000
vn 0.021831 -0.049283 0.998546
vn 0.021831 -0.049283 0.998546
vn 0.953548 0.301240 0.000000
vn 0.953548 0.301240 0.000000
vn 0.021831 -0.049283 -0.998546
vn 0.021831 -0.049283 -0.998546
vn -0.953548 -0.301240 0.000000
vn -0.953548 -0.301240 -0.000000
vn -0.953548 -0.301240 -0.000003
vn -0.953548 -0.301240 0.000002
vn -0.953547 -0.301243 -0.000000
vn -0.953548 -0.301243 -0.000004
vn -0.953547 -0.301243 0.000000
vn -0.953548 -0.301243 0.000003
vn 0.502546 -0.864551 0.000000
vn 0.502546 -0.864551 0.000000
vn 0.502545 -0.864551 0.000000
vn 0.502545 -0.864551 0.000000
vn -0.397693 -0.206183 0.894052
vn -0.397693 -0.206183 0.894052
vn -0.405461 -0.207717 0.890199
vn -0.408760 -0.208366 0.888537
vn -0.888171 0.459513 0.000000
vn -0.888171 0.459513 0.000000
vn -0.863276 0.504732 0.000000
vn -0.863276 0.504732 0.000000
vn -0.397693 -0.206183 -0.894052
vn -0.397693 -0.206183 -0.894052
vn -0.408760 -0.208366 -0.888537
vn -0.405461 -0.207717 -0.890199
vn -0.240553 -0.970636 0.000000
vn -0.240553 -0.970636 0.000000
vn -0.240553 -0.970636 0.000000
vn -0.240553 -0.970636 0.000000
vn -0.446562 -0.215669 0.868372
vn -0.446562 -0.215669 0.868372
vn -0.590413 0.807102 0.000000
vn -0.590413 0.807102 0.000000
vn -0.446562 -0.215669 -0.868371
vn -0.446563 -0.215669 -0.868372
vn 0.000000 0.000000 1.000000
vn 0.000000 0.000000 1.000000
vn 0.000000 0.000000 1.000000
vn 0.000000 0.000000 1.000000
vn -0.056831 0.998384 0.000000
vn 0.000000 1.000000 0.000000
vn 0.000000 1.000000 0.000000
vn -0.056831 0.998384 0.000000
vn 0.000000 0.000000 -1.000000
vn 0.000000 0.000000 -1.000000
vn 0.000000 0.000000 -1.000000
vn 0.000000 0.000000 -1.000000
vn 0.000000 -1.000000 0.000000
vn 0.340732 -0.940161 0.000000
vn 0.340732 -0.940161 0.000000
vn 0.000000 -1.000000 0.000000
vn 0.967302 -0.253628 0.000000
vn 0.967302 -0.253628 0.000000
vn 0.967302 -0.253628 0.000000
vn 0.967302 -0.253628 0.000000
vn -1.000000 0.000000 0.000000
vn -1.000000 0.000000 0.000000
vn -1.000000 0.000000 0.000000
vn -1.000000 0.000000 0.000000
vn 0.000000 0.000000 -1.000000
vn 0.000000 0.000000 -1.000000
vn 0.673176 -0.739482 0.000000
vn 0.673176 -0.739482 0.000000
vn 0.000000 0.000000 1.000000
vn 0.000000 0.000000 1.000000
vn -0.857649 -0.514235 0.000000
vn -0.857649 -0.514235 0.000000
vn -0.857649 -0.514235 0.000000
vn -0.857649 -0.514235 0.000000
vn 0.000000 0.000000 1.000000
vn 0.000000 0.000000 1.000000
vn 1.000000 0.000000 0.000000
vn 1.000000 0.000000 0.000000
vn 1.000000 0.000000 0.000000
vn 1.000000 0.000000 0.000000
vn 0.000000 0.000000 -1.000000
vn 0.000000 0.000000 -1.000000
vn -1.000000 0.000000 0.000000
vn -1.000000 0.000000 0.000000
vn -1.000000 0.000000 0.000000
vn -1.000000 0.000000 0.000000
vn 0.000000 -1.000000 0.000000
vn 0.000000 -1.000000 0.000000
vn 0.032080 -0.999485 0.000000
vn 0.032080 -0.999485 0.000000
vn 0.030521 0.000000 -0.999534
vn 0.030521 0.000000 -0.999534
vn 0.000000 1.000000 0.000000
vn 0.000000 1.000000 0.000000
vn 0.000000 1.000000 0.000000
vn 0.000000 1.000000 0.000000
vn 0.030521 0.000000 0.999534
vn 0.030521 0.000000 0.999534
vn 0.451653 -0.892194 0.000000
vn 0.451653 -0.892194 0.000000
vn 0.467370 0.000000 -0.884062
vn 0.467370 0.000000 -0.884062
vn 0.445299 0.895382 0.000000
vn 0.445299 0.895382 0.000000
vn 0.451653 0.892194 0.000000
vn 0.451653 0.892194 0.000000
vn 0.467370 0.000000 0.884062
vn 0.467370 0.000000 0.884062
vn 0.000000 1.000000 0.000000
vn 0.000000 1.000000 0.000000
vn 0.000000 1.000000 0.000000
vn 0.000000 1.000000 0.000000
vn 0.000000 0.000000 1.000000
vn 0.000000 0.000000 1.000000
vn 0.000000 0.000000 1.000000
vn 0.000000 0.000000 1.000000
vn 0.000000 -1.000000 0.000000
vn 0.000000 -1.000000 0.000000
vn 0.000000 -1.000000 0.000000
vn 0.000000 -1.000000 0.000000
vn 0.000000 0.000000 -1.000000
vn 0.000000 0.000000 -1.000000
vn 0.000000 0.000000 -1.000000
vn 0.000000 0.000000 -1.000000
vn 0.995181 -0.048927 0.084979
vn 0.995181 -0.048927 -0.084979
vn 0.988418 -0.143203 -0.050219
vn 0.988418 -0.143203 0.050219
vn 0.995181 0.048927 -0.084979
vn 0.988418 0.143203 -0.050219
vn 0.995181 0.048927 0.084979
vn 0.988418 0.143203 0.050219
vn 0.122194 -0.992506 0.000000
vn 0.122194 -0.992506 0.000000
vn 0.122194 -0.992506 0.000000
vn 0.122194 -0.992506 0.000000
vn 0.225375 0.000000 -0.974272
vn 0.225375 0.000000 -0.974272
vn 0.225375 0.000000 -0.974272
vn 0.225375 0.000000 -0.974272
vn 0.122194 0.992506 0.000000
vn 0.122194 0.992506 0.000000
vn 0.122194 0.992506 0.000000
vn 0.122194 0.992506 0.000000
vn 0.225375 0.000000 0.974272
vn 0.225375 0.000000 0.974272
vn 0.225375 0.000000 0.974272
vn 0.225375 0.000000 0.974272
vn -0.380565 -0.924754 0.000000
vn -0.380565 -0.924754 0.000000
vn -0.380565 -0.924754 0.000000
vn -0.380565 -0.924754 0.000000
vn -0.530697 0.000000 0.847561
vn -0.530697 0.000000 0.847561
vn -0.530697 0.000000 0.847562
vn -0.530697 0.000000 0.847562
vn -0.380565 0.924754 0.000000
vn -0.380565 0.924754 0.000000
vn -0.530697 0.000000 -0.847561
vn -0.530697 0.000000 -0.847561
vn -0.530697 0.000000 -0.847562
vn -0.530697 0.000000 -0.847562
vn 0.000000 1.000000 0.000000
vn 0.000000 1.000000 0.000000
vn 0.000000 0.000000 -0.000000
vn 0.000000 0.000000 -0.000000
vn 0.000000 0.000000 -1.000000
vn 0.000000 0.000000 -1.000000
vn 0.000000 1.000000 0.000000
vn 0.000000 1.000000 0.000000
vn 0.000000 0.000000 0.000000
vn 0.000000 0.000000 0.000000
vn 0.000000 0.000000 1.000000
vn 0.000000 0.000000 1.000000
vn -0.605190 0.796081 0.000000
vn -0.605190 0.796081 0.000000
vn -0.605190 0.796081 0.000000
vn -0.605190 0.796081 0.000000
vn 0.000000 0.719801 0.694180
vn 0.000000 0.719801 0.694180
vn 0.000000 0.719801 0.694180
vn 0.000000 0.719801 0.694180
vn 0.605189 0.796082 0.000000
vn 0.605189 0.796082 0.000000
vn 0.605189 0.796082 0.000000
vn 0.605189 0.796082 0.000000
vn 0.000000 0.719802 -0.694180
vn 0.000000 0.719802 -0.694180
vn 0.000000 0.719802 -0.694180
vn 0.000000 0.719802 -0.694180
s 1
g pCube3
usemtl initialShadingGroup
f 1/1/1 2/2/2 4/4/3 3/3/4
s off
f 3/3/5 4/4/6 6/6/7 5/5/8
s 2
f 5/5/9 6/6/10 8/8/11 7/7/12
s 3
f 7/7/13 8/8/14 2/10/15 1/9/16
s 4
f 10/15/17 9/16/18 11/17/19 12/18/20
s off
f 7/13/21 1/1/22 3/3/23 5/14/24
s 3
f 2/2/15 8/11/14 9/16/25 10/15/26
s 2
f 8/11/11 6/12/10 11/17/27 9/16/28
s off
f 14/19/29 13/20/30 15/21/31 16/22/32
s 1
f 4/4/3 2/2/2 10/15/33 12/18/34
s off
f 26/31/35 25/32/36 27/33/37 28/34/38
s 1
f 4/4/3 12/18/34 15/21/39 13/20/40
s 4
f 12/18/20 11/17/19 16/22/41 15/21/42
s 2
f 11/17/27 6/12/10 14/19/43 16/22/44
s 5
f 6/12/45 4/4/46 17/24/47 18/23/48
f 4/4/46 13/20/49 19/25/50 17/24/47
f 13/20/49 14/19/51 20/26/52 19/25/50
f 14/19/51 6/12/45 18/23/48 20/26/52
s off
f 18/23/53 17/24/54 21/28/55 22/27/56
s 6
f 17/24/57 19/25/58 23/29/59 21/28/60
s 7
f 19/25/61 20/26/62 24/30/63 23/29/64
s 8
f 20/26/65 18/23/66 22/27/67 24/30/68
s off
f 22/27/69 21/28/70 25/32/71 26/31/72
s 6
f 21/28/60 23/29/59 27/33/73 25/32/74
s 7
f 23/29/64 24/30/63 28/34/75 27/33/76
s 8
f 24/30/68 22/27/67 26/31/77 28/34/78
s 9
f 29/35/79 30/36/80 32/37/81 31/38/82
s 10
f 41/39/83 42/40/84 43/41/85 44/42/86
s 11
f 33/43/87 34/44/88 36/45/89 35/46/90
s 12
f 37/47/91 38/48/92 39/49/93 40/50/94
s off
f 30/36/95 36/51/96 34/52/97 32/37/98
f 35/53/99 29/35/100 31/38/101 33/54/102
s 11
f 35/46/90 36/45/89 38/48/103 37/47/104
s 12
f 36/45/105 30/55/106 39/49/93 38/48/92
s 9
f 30/55/80 29/56/79 40/50/107 39/49/108
s off
f 29/56/109 35/46/110 37/47/111 40/50/112
s 9
f 31/38/82 32/37/81 42/40/113 41/39/114
s off
f 61/57/115 62/58/116 63/59/117 64/60/118
s 11
f 34/44/88 33/43/87 44/42/119 43/41/120
s off
f 66/61/121 65/62/122 67/63/123 68/64/124
s 13
f 32/37/125 34/44/126 46/65/127 45/66/128
s 11
f 34/44/88 43/41/120 47/67/129 46/65/130
s off
f 74/68/131 73/69/132 75/70/133 76/71/134
s 9
f 42/40/113 32/37/81 45/66/135 48/72/136
s 13
f 45/66/128 46/65/127 50/73/137 49/74/138
s 11
f 46/65/130 47/67/129 51/75/139 50/73/140
s 14
f 47/67/141 48/72/142 52/76/143 51/75/144
s 9
f 48/72/136 45/66/135 49/74/145 52/76/146
s off
f 49/74/147 50/73/148 54/77/149 53/78/150
f 50/73/151 51/75/152 55/79/153 54/77/154
f 51/75/155 52/76/156 56/80/157 55/79/158
f 52/76/159 49/74/160 53/78/161 56/80/162
s 15
f 53/78/163 54/77/164 58/81/165 57/82/166
f 54/77/164 55/79/167 59/83/168 58/81/165
f 55/79/167 56/80/169 60/84/170 59/83/168
f 56/80/169 53/78/163 57/82/166 60/84/170
s off
f 57/82/171 58/81/172 62/58/173 61/57/174
f 58/81/175 59/83/176 63/59/177 62/58/178
f 59/83/179 60/84/180 64/60/181 63/59/182
f 60/84/183 57/82/184 61/57/185 64/60/186
f 33/43/187 31/38/188 65/62/189 66/61/190
f 31/38/191 41/39/192 67/63/193 65/62/194
s 10
f 41/39/83 44/42/86 68/64/195 67/63/196
s off
f 44/42/197 33/43/198 66/61/199 68/64/200
s 10
f 43/41/85 42/40/84 69/85/201 70/86/202
s off
f 42/40/203 48/72/204 71/87/205 69/85/206
s 14
f 48/72/142 47/67/141 72/88/207 71/87/208
s off
f 47/67/209 43/41/210 70/86/211 72/88/212
f 70/86/213 69/85/214 73/69/215 74/68/216
f 69/85/217 71/87/218 75/70/219 73/69/220
f 71/87/221 72/88/222 76/71/223 75/70/224
f 72/88/225 70/86/226 74/68/227 76/71/228
